<mxfile host="app.diagrams.net" modified="2022-07-10T18:01:07.614Z" agent="5.0 (Windows NT 10.0; Win64; x64) AppleWebKit/537.36 (KHTML, like Gecko) Chrome/103.0.0.0 Safari/537.36" etag="Qt9UpBPwmbwskR7J5sRL" version="20.0.4" type="github">
  <diagram id="cqNDiduG8rjnfQvQ5-j2" name="페이지-1">
    <mxGraphModel dx="1038" dy="521" grid="0" gridSize="10" guides="1" tooltips="1" connect="1" arrows="1" fold="1" page="1" pageScale="1" pageWidth="827" pageHeight="1169" math="0" shadow="0">
      <root>
        <mxCell id="0" />
        <mxCell id="1" parent="0" />
        <mxCell id="ZECinfdXZToZt99894oI-5" value="" style="edgeStyle=orthogonalEdgeStyle;rounded=0;orthogonalLoop=1;jettySize=auto;html=1;" edge="1" parent="1" source="ZECinfdXZToZt99894oI-1" target="ZECinfdXZToZt99894oI-4">
          <mxGeometry relative="1" as="geometry" />
        </mxCell>
        <mxCell id="ZECinfdXZToZt99894oI-1" value="a=시작값,b=끝값" style="rounded=0;whiteSpace=wrap;html=1;" vertex="1" parent="1">
          <mxGeometry x="285" y="27" width="120" height="60" as="geometry" />
        </mxCell>
        <mxCell id="ZECinfdXZToZt99894oI-4" value="a부터 b 까지&amp;nbsp;" style="rounded=0;whiteSpace=wrap;html=1;" vertex="1" parent="1">
          <mxGeometry x="285" y="167" width="120" height="60" as="geometry" />
        </mxCell>
      </root>
    </mxGraphModel>
  </diagram>
</mxfile>
